<?xml version="1.0" encoding="utf-8"?>
<!-- Generator: Adobe Illustrator 17.0.0, SVG Export Plug-In . SVG Version: 6.00 Build 0)  -->
<!DOCTYPE svg PUBLIC "-//W3C//DTD SVG 1.1//EN" "http://www.w3.org/Graphics/SVG/1.1/DTD/svg11.dtd">
<svg version="1.1" id="Layer_1" xmlns="http://www.w3.org/2000/svg" xmlns:xlink="http://www.w3.org/1999/xlink" x="0px" y="0px"
	 width="332.509px" height="248.267px" viewBox="0 0 332.509 248.267" enable-background="new 0 0 332.509 248.267"
	 xml:space="preserve">
<g>
	<g>
		<path d="M0,215.017C0,154.243,0,93.469,0,32.696c0.188-0.704,0.43-1.398,0.557-2.112c2.027-11.357,8.129-20.1,17.86-25.954
			c3.905-2.349,8.752-3.134,13.17-4.63c89.96,0,179.919,0,269.879,0c6.705,1.409,12.942,3.584,18.227,8.361
			c7.764,7.017,12.762,15.279,12.774,25.911c0.067,58.075,0.032,116.15,0.03,174.226c0,1.477,0.024,2.958-0.067,4.43
			c-0.61,9.891-4.443,18.396-11.461,25.329c-4.77,4.712-10.693,7.456-17.254,8.85c-0.796,0.169-1.501,0.762-2.249,1.159
			c-89.59,0-179.181,0-268.771,0c-0.855-0.371-1.677-0.932-2.569-1.084c-14.739-2.511-24.055-11.846-28.488-25.227
			C0.894,219.708,0.536,217.333,0,215.017z M35.162,19.492c0.647,0.86,0.961,1.378,1.37,1.806
			c8.781,9.168,17.574,18.324,26.36,27.487c8.403,8.763,16.801,17.531,25.202,26.295c8.529,8.898,17.059,17.795,25.59,26.691
			c8.659,9.029,17.3,18.076,25.989,27.076c6.974,7.223,13.979,14.416,21.024,21.569c5.617,5.703,6.807,5.735,12.373-0.006
			c7.873-8.121,15.622-16.362,23.438-24.538c8.581-8.977,17.179-17.938,25.77-26.906c8.59-8.968,17.181-17.936,25.769-26.906
			c8.396-8.77,16.76-17.571,25.193-26.305c7.679-7.953,15.434-15.834,23.148-23.753c0.651-0.668,1.245-1.392,2.237-2.508
			C210.536,19.492,123.139,19.492,35.162,19.492z M279.091,229.265c-3.233-3.54-6.08-6.769-9.046-9.885
			c-8.498-8.929-17.031-17.825-25.574-26.711c-5.743-5.974-11.521-11.914-17.29-17.864c-6.282-6.48-12.596-12.93-18.845-19.442
			c-2.391-2.491-4.643-5.115-7.216-7.965c-2.571,2.863-4.755,5.445-7.097,7.875c-7.095,7.364-14.214,14.706-21.418,21.963
			c-1.326,1.336-3.042,2.32-4.684,3.285c-0.524,0.308-1.551,0.287-2.075-0.032c-1.703-1.038-3.482-2.083-4.868-3.485
			c-5.828-5.894-11.539-11.903-17.26-17.902c-1.833-1.922-3.523-3.98-5.352-5.905c-2.133-2.247-4.347-4.417-6.7-6.796
			c-7.218,7.668-14.118,15.057-21.083,22.384c-8.431,8.869-16.902,17.701-25.386,26.52c-6.129,6.372-12.317,12.688-18.46,19.048
			c-4.41,4.567-8.793,9.16-13.17,13.758c-0.263,0.276-0.375,0.697-0.609,1.153C128.353,229.265,203.494,229.265,279.091,229.265z
			 M213.951,134.475c6.664,7.112,13.169,14.12,19.747,21.06c8.421,8.885,16.87,17.745,25.363,26.562
			c7.673,7.966,15.421,15.859,23.136,23.783c0.387,0.397,0.787,0.78,1.168,1.183c6.371,6.752,12.724,13.52,19.143,20.227
			c0.454,0.474,1.49,0.846,2.073,0.667c3.504-1.074,6.553-3.131,7.677-6.628c1.252-3.894,2.345-8.054,2.355-12.101
			c0.147-59.203,0.103-118.406,0.094-177.61c0-0.656-0.136-1.312-0.209-1.969c-0.236-0.132-0.473-0.264-0.709-0.396
			c-0.674,0.882-1.281,1.826-2.032,2.637c-5.115,5.528-10.217,11.07-15.405,16.53c-8.557,9.006-17.178,17.953-25.769,26.927
			c-8.399,8.774-16.767,17.577-25.201,26.317c-7.423,7.693-14.942,15.292-22.366,22.984
			C219.955,127.82,217.034,131.124,213.951,134.475z M118.922,133.422c-6.966-7.382-13.874-14.744-20.83-22.061
			c-8.114-8.536-16.264-17.039-24.407-25.547c-8.717-9.107-17.418-18.23-26.177-27.297c-7.683-7.953-15.44-15.834-23.15-23.76
			c-0.502-0.516-0.891-1.143-1.323-1.725c-0.778-1.048-1.548-2.1-2.322-3.151c-0.275,0.242-0.551,0.484-0.826,0.726
			c0,0.733,0,1.466,0,2.2c0,59.834-0.005,119.668,0.025,179.503c0.001,2.111,0.255,4.239,0.581,6.33
			c0.531,3.406,2.017,6.256,5.037,8.213c1.782,1.155,3.087,1.357,4.734-0.437c6.341-6.909,12.82-13.693,19.289-20.484
			c8.442-8.863,16.914-17.698,25.392-26.527c5.486-5.713,10.999-11.399,16.512-17.085c6.541-6.747,13.125-13.453,19.631-20.234
			C113.744,139.314,116.244,136.392,118.922,133.422z"/>
	</g>
</g>
</svg>
