<?xml version="1.0" encoding="utf-8"?>
<!-- Generator: Adobe Illustrator 17.0.0, SVG Export Plug-In . SVG Version: 6.00 Build 0)  -->
<!DOCTYPE svg PUBLIC "-//W3C//DTD SVG 1.1//EN" "http://www.w3.org/Graphics/SVG/1.1/DTD/svg11.dtd">
<svg version="1.1" id="Layer_1" xmlns="http://www.w3.org/2000/svg" xmlns:xlink="http://www.w3.org/1999/xlink" x="0px" y="0px"
	 width="241px" height="241px" viewBox="0 0 241 241" enable-background="new 0 0 241 241" xml:space="preserve">
<g>
	<g>
		<path d="M239.074,122.281c0.643,62.43-51.909,118.256-116.875,118.17C59.796,240.368,5.28,191.811,4.348,123.349
			C3.439,56.534,54.942,3.313,119.773,2.955C186.602,2.586,238.724,54.719,239.074,122.281z M121.773,227.143
			c56.998,0.835,104.625-46.305,105.099-104.587c0.496-61.049-47.057-104.359-100.507-106.472
			C62.151,13.544,15.646,63.737,16.265,123.413C16.851,179.899,61.744,226.621,121.773,227.143z"/>
		<path d="M159.447,201.313c-8.898,4.018-17.404-1.171-17.496-9.669c-0.064-5.998,0.148-12.018-0.33-17.983
			c-0.239-2.986-1.744-5.87-3.499-8.581c-1.309,13.642-4.478,27.116,0.885,40.324c-6.183,1.419-10.643-0.428-11.78-6.156
			c-1.541-7.765-1.962-15.77-2.573-23.694c-0.331-4.29-0.059-8.626-0.059-12.849c-5.11-1.088-5.94-0.224-5.976,4.745
			c-0.065,9.141-0.14,18.29-0.588,27.417c-0.393,8.007-5.125,11.873-13.817,11.311c6.346-13.552,2.796-27.769,3.835-41.887
			c-3.838-0.336-5.072,1.815-5.17,4.708c-0.259,7.642-0.196,15.296-0.487,22.936c-0.329,8.635-7.215,13.124-16.345,10.107
			c6.274-8.128,8.687-17.178,6.328-27.996c-3.208,0-6.795-0.02-10.381,0.004c-6.929,0.046-12.667-2.28-16.773-8.121
			c-4.581-6.517-9.254-12.969-14.042-19.667c3.851-2.959,6.963-1.421,9.762,1.204c3.989,3.74,7.485,8.084,11.787,11.395
			c8.083,6.222,14.852,5.456,22.025-1.779c2.882-2.907,5.665-5.912,9.117-9.526c-4.425-0.933-7.884-1.795-11.388-2.38
			c-30.007-5.007-38.992-30.595-32.488-54.301c3.369-12.28,8.225-23.956,7.995-36.958c-0.031-1.764,0.792-3.552,1.291-5.309
			c0.126-0.443,0.528-0.806,0.861-1.291c7.638,0.286,14.423,2.943,21.159,6.408c3.274,1.684,7.587,2.575,11.215,2.118
			c12.287-1.547,24.455-1.748,36.76-0.202c3.323,0.418,7.014-0.954,10.355-2.055c7.152-2.358,14.186-5.077,22.07-7.939
			c0.541,8.585,0.802,15.534,1.509,22.437c0.254,2.481,1.003,5.318,2.514,7.198c11.931,14.837,8.677,45.628-0.211,56.178
			c-8.191,9.722-18.906,13.656-30.869,15.463c-1.604,0.242-3.205,0.508-5.228,1.231c10.697,4.904,12.148,13.886,11.617,23.864
			c-0.186,3.489,0.175,7.008-0.037,10.494C150.542,190.008,151.383,196.886,159.447,201.313z M122.091,94.046
			c0,0.019,0,0.039,0,0.058c-8.822,0-17.655-0.284-26.462,0.068c-12.604,0.503-20.566,7.593-21.568,18.579
			c-1.477,16.204,4.373,26.503,17.807,28.902c10.633,1.899,21.553,2.972,32.344,2.958c8.674-0.011,17.473-1.633,25.989-3.549
			c14.715-3.312,20.377-11.912,18.762-26.887c-1.348-12.499-9.757-20.07-22.408-20.122
			C138.401,94.019,130.246,94.046,122.091,94.046z"/>
		<path d="M89.568,116.423c-0.066-5.616,2.014-8.582,5.972-8.514c4.238,0.073,7.458,3.936,7.401,8.881
			c-0.053,4.634-3.57,8.8-7.552,8.945C91.619,125.873,89.642,122.708,89.568,116.423z"/>
		<path d="M155.299,117.23c-0.256,1.392-0.032,3.345-0.894,4.185c-1.651,1.609-3.81,3.191-5.975,3.582
			c-1.183,0.214-3.67-1.796-4.061-3.217c-0.83-3.022-1.506-6.565-0.648-9.413c0.642-2.13,3.682-4.64,5.846-4.834
			c1.521-0.136,3.596,3.185,4.972,5.261C155.279,113.912,155.066,115.659,155.299,117.23z"/>
	</g>
</g>
</svg>
