<?xml version="1.0" encoding="utf-8"?>
<!-- Generator: Adobe Illustrator 17.0.0, SVG Export Plug-In . SVG Version: 6.00 Build 0)  -->
<!DOCTYPE svg PUBLIC "-//W3C//DTD SVG 1.1//EN" "http://www.w3.org/Graphics/SVG/1.1/DTD/svg11.dtd">
<svg version="1.1" id="Layer_1" xmlns="http://www.w3.org/2000/svg" xmlns:xlink="http://www.w3.org/1999/xlink" x="0px" y="0px"
	 width="512px" height="512px" viewBox="0 0 512 512" enable-background="new 0 0 512 512" xml:space="preserve">
<g>
	<g>
		<path d="M512,86c0,113.333,0,226.667,0,340c-0.262,0.385-0.716,0.75-0.758,1.157c-1.383,13.537-5.729,26.067-12.732,37.702
			c-13.116,21.792-31.78,36.401-56.324,43.292c-5.335,1.498-10.788,2.576-16.186,3.848c-113.333,0-226.667,0-340,0
			c-1.046-0.322-2.072-0.797-3.142-0.943c-38.655-5.285-70.673-33.949-79.962-71.68C1.806,434.949,0.959,430.461,0,426
			C0,312.667,0,199.333,0,86c0.302-0.882,0.74-1.742,0.887-2.649C7.132,44.857,28.725,18.861,65.061,5.197
			C71.746,2.683,79.006,1.693,86,0c113.333,0,226.667,0,340,0c0.882,0.302,1.742,0.759,2.648,0.884
			c39.444,5.449,71.01,33.731,80.521,72.231C510.223,77.383,511.061,81.704,512,86z M39.154,177.25c2.575,0,4.389,0,6.204,0
			c21.166,0,42.34-0.319,63.495,0.171c7.513,0.174,13.289-0.716,15.968-8.67c0.502-1.491,1.935-2.66,2.901-4.004
			c14.903-20.73,33.625-37.046,56.349-48.728c24.262-12.473,49.99-18.087,77.294-17.254c20.382,0.622,39.866,4.968,58.352,13.254
			c29.583,13.26,53.153,33.688,70.17,61.384c1.852,3.014,3.808,3.928,7.147,3.911c23.499-0.12,46.999-0.058,70.498-0.076
			c1.61-0.001,3.219-0.175,4.947-0.276c0.157-1.03,0.337-1.662,0.338-2.295c0.019-25.999,0.157-52-0.034-77.997
			c-0.083-11.342-3.04-22.121-9.454-31.554c-12.184-17.918-29.612-25.957-51.007-25.958c-104.831-0.008-209.662-0.034-314.492,0.038
			c-12.399,0.008-24.042,3.2-34.206,10.542c-16.424,11.863-24.25,28.29-24.418,48.32c-0.207,24.831-0.05,49.665-0.049,74.498
			C39.154,173.853,39.154,175.151,39.154,177.25z M373.999,255.526c-0.452-64.955-54.22-118.279-118.124-117.657
			c-67.706,0.659-118.043,55.138-117.733,118.438c0.324,66.099,52.974,117.965,118.48,117.536
			C322.696,373.409,373.569,320.747,373.999,255.526z"/>
		<path d="M374.101,98.541c0.003-6.127-0.081-12.256,0.021-18.382c0.211-12.769,8.055-20.899,20.702-21.11
			c12.483-0.208,24.976-0.219,37.459,0.005c12.493,0.223,20.441,8.173,20.664,20.667c0.223,12.483,0.209,24.976,0.005,37.459
			c-0.204,12.408-8.293,20.508-20.615,20.687c-12.585,0.183-25.177,0.184-37.762-0.007c-11.966-0.182-20.165-8.472-20.451-20.438
			C373.974,111.131,374.097,104.834,374.101,98.541z"/>
		<path d="M190.667,221.064c-3.611,29.646,19.149,45.328,37.709,45.219c20.565-0.121,37.943-17.655,37.902-38.197
			c-0.039-19.333-16.886-41.195-45.166-37.299c21.629-14.896,61.913-14.665,88.29,12.452c29.048,29.863,29.337,75.07,0.44,105.085
			c-27.323,28.38-70.774,30.415-100.921,6.164C176.142,288.119,175.109,244.587,190.667,221.064z"/>
	</g>
</g>
</svg>
