<?xml version="1.0" encoding="utf-8"?>
<!-- Generator: Adobe Illustrator 17.0.0, SVG Export Plug-In . SVG Version: 6.00 Build 0)  -->
<!DOCTYPE svg PUBLIC "-//W3C//DTD SVG 1.1//EN" "http://www.w3.org/Graphics/SVG/1.1/DTD/svg11.dtd">
<svg version="1.1" id="Layer_1" xmlns="http://www.w3.org/2000/svg" xmlns:xlink="http://www.w3.org/1999/xlink" x="0px" y="0px"
	 width="245px" height="235px" viewBox="0 0 245 235" enable-background="new 0 0 245 235" xml:space="preserve">
<g>
	<g>
		<path d="M123.979,233.118c-20.986,0-41.978,0.352-62.955-0.083c-30.498-0.633-59.112-27.475-58.448-60.363
			c0.743-36.8,0.452-73.629,0.073-110.44C2.39,36.993,19.717,15.048,42.023,6.597C54.696,1.795,67.75,2.291,80.786,2.236
			C114.587,2.095,148.39,2.45,182.19,2.229c30.685-0.2,51.238,17.937,58.083,40.225c1.729,5.629,2.814,11.692,2.852,17.565
			c0.249,38.312,0.183,76.627,0.111,114.94c-0.062,32.808-24.946,57.939-57.788,58.256c-20.488,0.198-40.979,0.037-61.469,0.037
			C123.979,233.207,123.979,233.163,123.979,233.118z M131.184,92.892c-0.428-2.09-0.681-3.88-1.167-5.603
			c-2.021-7.165-6.133-10.51-12.154-9.989c-6.93,0.6-10.037,3.871-10.837,11.732c-0.402,3.948-0.685,7.926-0.7,11.891
			c-0.07,19.315-0.085,38.631,0.013,57.947c0.019,3.794,0.414,7.617,1.003,11.369c0.883,5.629,5.452,9.571,10.852,9.759
			c8.748,0.304,13.631-4.498,13.796-13.674c0.266-14.786,0.446-29.575,0.728-44.361c0.193-10.071,3.324-18.612,13.215-23.054
			c10.581-4.752,22.831-1.001,24.072,10.434c0.635,5.855,1.087,11.747,1.246,17.632c0.372,13.782,0.313,27.579,0.835,41.354
			c0.292,7.715,5.486,11.943,13.202,11.67c7.394-0.262,11.618-5.673,11.68-15.485c0.107-16.651,0.021-33.303,0.033-49.954
			c0.006-8.221-0.977-16.213-5.587-23.306c-8.251-12.695-24.085-16.17-39.133-12.645C143.501,80.666,137.194,86.397,131.184,92.892z
			 M81.006,128.19c0.194-0.001,0.389-0.001,0.583-0.002c0-11.328,0.029-22.657-0.026-33.985c-0.011-2.143-0.192-4.315-0.58-6.421
			c-1.701-9.222-11.737-13.716-19.432-8.533c-4.983,3.356-5.491,8.885-5.512,14.261c-0.088,22.323-0.065,44.647-0.004,66.971
			c0.008,2.962,0.278,5.954,0.758,8.877c1.144,6.959,5.569,10.741,12.133,10.641c6.657-0.102,11.736-4.336,11.957-11.399
			C81.306,155.142,81.006,141.661,81.006,128.19z M56.002,52.817c-0.124,7.435,5.056,12.655,12.761,12.858
			c6.651,0.176,12.625-5.522,12.913-12.314c0.286-6.765-4.993-12.19-12.025-12.359C61.678,40.811,56.122,45.621,56.002,52.817z"/>
	</g>
</g>
</svg>
