<?xml version="1.0" encoding="utf-8"?>
<!-- Generator: Adobe Illustrator 17.0.0, SVG Export Plug-In . SVG Version: 6.00 Build 0)  -->
<!DOCTYPE svg PUBLIC "-//W3C//DTD SVG 1.1//EN" "http://www.w3.org/Graphics/SVG/1.1/DTD/svg11.dtd">
<svg version="1.1" xmlns="http://www.w3.org/2000/svg" xmlns:xlink="http://www.w3.org/1999/xlink" x="0px" y="0px"
	 width="575.026px" height="432px" viewBox="0 0 575.026 432" enable-background="new 0 0 575.026 432" xml:space="preserve">
<g id="Shape_1_1_" enable-background="new    ">
	<g id="Shape_1">
		<g>
			<path fill-rule="evenodd" clip-rule="evenodd" fill="#B8D3D1" d="M20.665,4.965C35.9,5.35,82.551,6.513,100.439,6.787
				C85.662,112.903,78.164,190.696,77.523,244.487c-0.658,55.215,5.655,88.543,19.867,104.884
				c7.07,8.13,16.311,12.252,27.464,12.252c0.003,0,0.006,0,0.01,0c29.184-0.006,70.716-28.387,123.297-64.318
				c5.398-3.689,10.919-7.463,16.562-11.298c31.278-21.258,46.707-25.72,54.142-25.72c5.128,0,6.932,2.024,7.931,3.788
				c11.116,19.635-28.919,100.939-57.629,149.22L5.038,426.89L20.665,4.965z"/>
		</g>
		<g>
			<path d="M25.329,9.929c16.716,0.419,50.982,1.262,69.56,1.608c-14.307,103.552-21.578,179.815-22.21,232.887
				c-0.335,28.094,1.107,50.279,4.406,67.821c3.416,18.163,8.862,31.345,16.647,40.299c8.033,9.239,18.507,13.924,31.131,13.924
				c30.676,0,70.659-27.324,125.998-65.141c5.406-3.694,10.935-7.473,16.586-11.314c31.855-21.65,45.889-24.882,51.419-24.882
				c2.961,0,3.414,0.8,3.714,1.33c1.346,2.377,6.541,17.417-23.431,80.278c-12.847,26.943-27.112,51.988-32.855,61.852
				L10.075,421.779L25.329,9.929 M16,0L0,432l272-14c0,0,97.543-162.558,46.866-162.558c-11.055,0-29.152,7.723-56.866,26.558
				c-60.188,40.906-106.584,74.778-137.137,74.778C76.855,356.778,67.946,273.207,106,2C94.234,2,16,0,16,0L16,0z"/>
		</g>
	</g>
</g>
<g id="Shape_2_1_" enable-background="new    ">
	<g id="Shape_2_3_">
		<g>
			<path fill-rule="evenodd" clip-rule="evenodd" fill="#B8D3D1" d="M451.479,431.737c-26.695-27.298-60.256-106.274-97.31-229.116
				C329.089,119.474,309.95,41,304.982,20.227l62.897-6.8c-0.771,17.735-2.387,74.054,4.669,132.875
				c5.01,41.766,13.354,76.67,24.799,103.744c14.633,34.614,34.486,56.655,59.008,65.511l2.93,1.059l2.179-2.227
				c27.636-28.235,41.951-89.99,42.549-183.549c0.363-56.745-4.686-108.59-6.538-125.595c31.144,2.26,63.765,5.502,72.7,7.738
				c0.079,20.254-0.606,98.309-14.325,183.608c-8.686,54.004-20.935,100.564-36.408,138.385
				C501.146,379.697,478.293,412.226,451.479,431.737z"/>
		</g>
		<g>
			<path d="M502.899,10.506c25.543,1.941,51.357,4.476,62.434,6.427c-0.042,24.969-1.373,98.711-14.268,178.889
				c-8.627,53.639-20.776,99.84-36.109,137.32c-17.16,41.944-38.293,72.875-62.899,92.092
				c-13.146-15.013-28.083-42.771-44.496-82.718c-15.304-37.246-31.702-84.769-48.739-141.249
				c-23.25-77.074-41.39-150.14-47.841-176.816l51.815-5.602c-0.808,22.184-1.609,73.429,4.941,128.029
				c5.064,42.216,13.525,77.561,25.147,105.053c15.18,35.908,35.981,58.848,61.824,68.182l5.859,2.116l4.357-4.452
				c28.545-29.164,43.326-92.049,43.932-186.907C509.186,79.313,505.066,31.764,502.899,10.506 M492,0c0,0,30.445,245.156-34,311
				C356.289,274.266,373,8,373,8l-74,8c0,0,84.047,360.601,152,422C580.008,350.125,575,14.274,575,10S492,0,492,0L492,0z"/>
		</g>
	</g>
</g>
</svg>
