<?xml version="1.0" encoding="utf-8"?>
<!-- Generator: Adobe Illustrator 17.0.0, SVG Export Plug-In . SVG Version: 6.00 Build 0)  -->
<!DOCTYPE svg PUBLIC "-//W3C//DTD SVG 1.1//EN" "http://www.w3.org/Graphics/SVG/1.1/DTD/svg11.dtd">
<svg version="1.1" id="Layer_1" xmlns="http://www.w3.org/2000/svg" xmlns:xlink="http://www.w3.org/1999/xlink" x="0px" y="0px"
	 width="353.917px" height="439.923px" viewBox="0 0 353.917 439.923" enable-background="new 0 0 353.917 439.923"
	 xml:space="preserve">
<g>
	<g>
		<path d="M0.296,245.333c0-50.831,0.39-101.667-0.18-152.492c-0.249-22.25,20.611-42.15,42.033-42.108
			c72.329,0.142,144.658-0.037,216.987-0.085c25.291-0.017,44.133,18.934,44.126,44.338c-0.027,100.328-0.053,200.656-0.077,300.984
			c-0.006,24.912-19.022,43.917-43.97,43.91c-72.33-0.021-144.661-0.249-216.989,0.043c-21.57,0.087-42.505-20.889-42.224-42.099
			c0.674-50.822,0.218-101.66,0.218-152.491C0.246,245.333,0.271,245.333,0.296,245.333z M274.976,247.997
			c0-47.661,0.04-95.322-0.078-142.982c-0.009-3.672-0.916-7.394-1.803-10.995c-0.67-2.722-2.272-5.215-2.933-7.938
			c-1.378-5.671-5.414-7.039-10.458-7.1c-1.333-0.016-2.666-0.008-4-0.008c-69.825,0.005-139.65,0.008-209.475,0.016
			c-12.561,0.001-17.084,4.019-18.545,16.54c-0.212,1.813-0.185,3.659-0.185,5.49c-0.007,76.658-0.005,153.316-0.005,229.974
			c0,20.331-0.1,40.663,0.033,60.994c0.093,14.204,5.741,19.693,19.758,19.694c69.657,0.004,139.315,0.005,208.972-0.001
			c13.655-0.001,18.717-5.061,18.719-18.699C274.982,344.655,274.979,296.326,274.976,247.997z"/>
		<path d="M353.863,224.403c0.002,46.657,0.07,93.314-0.12,139.971c-0.016,3.987-0.97,8.402-2.877,11.851
			c-3.095,5.596-9.68,7.421-15.697,5.549c-5.444-1.694-9.746-7.494-9.793-13.733c-0.109-14.33-0.066-28.66-0.065-42.991
			c0.005-78.817,0.019-157.634,0.023-236.452c0.001-34.795-25.124-59.972-59.845-59.977c-63.487-0.009-126.974-0.004-190.461-0.045
			c-2.474-0.002-5.038-0.078-7.403-0.708c-6.612-1.759-11.022-7.697-10.706-13.93c0.327-6.466,5.449-12.319,12.041-13.53
			c1.944-0.357,3.976-0.32,5.967-0.321c64.987-0.015,129.975-0.249,194.959,0.123c21.101,0.121,39.618,8.296,55.203,22.52
			c20.01,18.263,28.947,41.245,28.826,68.202C353.716,135.421,353.861,179.913,353.863,224.403z"/>
		<path d="M145.449,169.185c-0.003,18.648,0.007,37.297-0.007,55.945c-0.006,7.976-2.467,10.574-10.273,10.586
			c-24.976,0.04-49.952,0.043-74.928-0.003c-8.777-0.016-11.259-2.561-11.263-11.338c-0.02-37.463-0.033-74.927-0.005-112.39
			c0.006-7.434,2.237-9.545,9.516-9.547c24.972-0.005,49.944-0.039,74.916-0.053c11.157-0.006,12.065,0.923,12.052,11.851
			C145.435,132.553,145.451,150.869,145.449,169.185z"/>
		<path d="M150.693,325.473c29.155,0,58.31-0.006,87.465,0.012c2.162,0.001,4.359-0.048,6.478,0.3
			c4.629,0.76,8.284,4.691,8.72,9.053c0.47,4.698-1.943,8.908-6.528,10.676c-1.967,0.759-4.204,1.14-6.319,1.142
			c-59.811,0.06-119.622,0.063-179.433,0.035c-7.342-0.003-12.575-4.039-13.008-9.749c-0.472-6.238,4.153-11.197,11.162-11.373
			c9.824-0.247,19.657-0.157,29.486-0.165c20.659-0.018,41.318-0.005,61.976-0.005C150.693,325.423,150.693,325.448,150.693,325.473
			z"/>
		<path d="M151.248,368.894c30.141,0.001,60.282-0.024,90.422,0.017c8.016,0.011,12.319,4.072,11.679,10.882
			c-0.456,4.852-3.065,8.042-7.89,9.048c-2.095,0.437-4.297,0.5-6.451,0.501c-59.116,0.036-118.231,0.031-177.347,0.076
			c-4.5,0.003-8.593-0.56-11.543-4.525c-4.331-5.82-1.348-14.215,5.742-15.668c1.77-0.363,3.641-0.318,5.466-0.319
			C91.3,368.888,121.274,368.893,151.248,368.894z"/>
		<path d="M150.427,302.976c-29.824,0-59.649,0.017-89.473-0.034c-2.295-0.004-4.731-0.083-6.852-0.832
			c-4.148-1.467-6.699-6.083-5.915-10.483c0.846-4.746,4.053-7.509,8.582-8.684c1.417-0.368,2.981-0.215,4.478-0.215
			c59.815-0.006,119.63-0.009,179.445,0.009c7.811,0.002,11.935,3.055,12.638,9.187c0.677,5.904-3,10.632-8.937,10.93
			c-5.651,0.283-11.325,0.119-16.99,0.12C201.745,302.98,176.086,302.976,150.427,302.976z"/>
		<path d="M209.771,165.369c-9.661,0-19.321,0.028-28.981-0.023c-1.987-0.011-4.018-0.106-5.948-0.531
			c-4.924-1.085-8.624-5.362-8.664-9.719c-0.04-4.436,3.422-8.881,8.177-10.176c2.07-0.564,4.256-0.978,6.391-0.986
			c19.654-0.076,39.308-0.081,58.962-0.003c2.127,0.008,4.329,0.429,6.36,1.082c4.558,1.467,7.512,5.781,7.305,10.205
			c-0.221,4.728-3.623,8.914-8.669,9.565c-4.76,0.614-9.625,0.491-14.446,0.545c-6.828,0.077-13.658,0.02-20.487,0.02
			C209.771,165.355,209.771,165.362,209.771,165.369z"/>
		<path d="M209.606,102.445c10.66,0,21.321-0.053,31.981,0.021c6.095,0.042,10.974,3.786,11.693,8.73
			c0.781,5.364-2.88,10.258-9.118,11.914c-1.74,0.462-3.613,0.581-5.426,0.585c-18.989,0.037-37.978,0.06-56.967-0.033
			c-2.628-0.013-5.338-0.381-7.86-1.105c-4.85-1.393-8.273-6.566-7.658-10.993c0.671-4.838,5.179-8.985,10.375-9.048
			c10.992-0.133,21.986-0.041,32.98-0.041C209.606,102.465,209.606,102.455,209.606,102.445z"/>
	</g>
</g>
</svg>
