<?xml version="1.0" encoding="utf-8"?>
<!-- Generator: Adobe Illustrator 17.0.0, SVG Export Plug-In . SVG Version: 6.00 Build 0)  -->
<!DOCTYPE svg PUBLIC "-//W3C//DTD SVG 1.1//EN" "http://www.w3.org/Graphics/SVG/1.1/DTD/svg11.dtd">
<svg version="1.1" id="Layer_1" xmlns="http://www.w3.org/2000/svg" xmlns:xlink="http://www.w3.org/1999/xlink" x="0px" y="0px"
	 width="256px" height="256px" viewBox="0 0 256 256" enable-background="new 0 0 256 256" xml:space="preserve">
<g>
	<g>
		<path d="M2.557,209.785c27.343,1.009,51.946-5.833,74.88-22.907c-24.121-2.567-40.033-14.201-48.7-36.503
			c7.479,0,14.346,0,21.212,0c0.199-0.38,0.398-0.76,0.597-1.14c-24.756-8.183-38.516-24.772-40.253-51.03
			c7.276,2.019,14.155,3.928,21.035,5.837c0.286-0.392,0.571-0.783,0.857-1.175c-22.047-19.282-27.046-42.039-14.6-69.455
			c28.712,33.458,64.253,51.911,108.14,54.945c0-7.526-1.081-14.779,0.204-21.585c3.726-19.734,15.663-33.276,34.552-39.827
			c19.02-6.597,36.473-2.545,51.683,10.505c2.59,2.223,4.746,3.207,7.97,2.033c9.171-3.339,18.384-6.561,27.82-9.914
			c-3.336,10.819-10.679,18.987-19.824,25.868c0.212,0.466,0.423,0.933,0.635,1.399c8.618-2.319,17.236-4.638,26.236-7.06
			c-6.111,9.13-13.348,16.836-21.875,23.292c-2.357,1.785-3.245,3.631-3.276,6.627c-0.522,49.977-19.671,91.238-58.826,122.516
			c-19.774,15.796-42.786,24.593-67.923,28.075c-34.896,4.833-67.588-1.169-98.08-18.892C4.174,210.9,3.377,210.323,2.557,209.785z"
			/>
	</g>
</g>
</svg>
